<?xml version="1.0" standalone="no"?>
<!DOCTYPE svg PUBLIC "-//W3C//DTD SVG 20010904//EN"
 "http://www.w3.org/TR/2001/REC-SVG-20010904/DTD/svg10.dtd">
<svg version="1.0" xmlns="http://www.w3.org/2000/svg"
 width="402.000000pt" height="402.000000pt" viewBox="0 0 402.000000 402.000000"
 preserveAspectRatio="xMidYMid meet">
<metadata>
Created by potrace 1.14, written by Peter Selinger 2001-2017
</metadata>
<g transform="translate(0.000000,402.000000) scale(0.100000,-0.100000)"
fill="#000000" stroke="none">
<path d="M1394 3921 c-88 -25 -172 -75 -230 -138 -89 -95 -128 -191 -139 -341
-7 -97 -12 -122 -35 -182 -44 -111 -129 -206 -232 -258 -77 -40 -87 -42 -218
-52 -269 -20 -432 -150 -497 -396 -30 -111 -20 -221 29 -319 89 -181 237 -277
445 -290 115 -8 206 -35 283 -86 128 -86 207 -228 215 -389 10 -180 50 -277
163 -386 50 -49 161 -108 232 -123 73 -16 217 -7 282 18 288 110 412 441 267
710 -80 149 -226 244 -397 256 -161 12 -211 26 -300 82 -81 51 -182 164 -182
204 0 6 -6 25 -14 42 -18 41 -26 78 -33 152 -17 206 120 415 320 485 56 20 83
24 210 35 165 14 297 95 386 238 63 99 88 277 55 389 -47 160 -160 281 -316
339 -75 28 -214 33 -294 10z"/>
<path d="M3275 3936 c-5 -2 -35 -12 -65 -21 -94 -29 -198 -119 -246 -211 -27
-51 -47 -139 -47 -204 1 -122 43 -221 132 -311 246 -245 665 -117 735 225 37
178 -42 361 -198 461 -74 47 -107 56 -221 61 -44 2 -84 2 -90 0z"/>
<path d="M2433 3058 c-163 -25 -306 -132 -377 -283 -32 -67 -38 -94 -43 -187
-8 -152 38 -270 146 -378 97 -96 196 -138 343 -145 229 -11 393 -129 464 -334
110 -316 -96 -632 -429 -657 -119 -8 -143 -12 -199 -32 -157 -55 -288 -205
-318 -363 -34 -180 12 -334 139 -459 106 -105 201 -142 359 -139 145 3 238 41
338 139 93 91 140 208 148 367 6 96 29 173 77 248 93 148 227 222 412 230 55
2 123 12 151 21 240 78 388 317 353 571 -8 54 -51 157 -85 202 -66 88 -173
164 -267 190 -22 7 -88 16 -146 21 -58 5 -131 18 -162 28 -194 69 -327 265
-327 486 0 148 -91 308 -225 398 -96 64 -234 94 -352 76z"/>
<path d="M592 948 c-114 -15 -233 -93 -297 -193 -133 -206 -74 -480 131 -611
78 -50 150 -67 264 -62 84 3 105 8 161 35 89 44 164 121 208 213 35 72 36 79
36 185 0 106 -2 113 -37 185 -56 115 -140 190 -255 229 -73 25 -129 30 -211
19z"/>
</g>
</svg>
